<?xml version="1.0" encoding="UTF-8" standalone="no"?>
<!-- Created with Inkscape (http://www.inkscape.org/) -->

<svg
   xmlns:dc="http://purl.org/dc/elements/1.1/"
   xmlns:cc="http://creativecommons.org/ns#"
   xmlns:rdf="http://www.w3.org/1999/02/22-rdf-syntax-ns#"
   xmlns:svg="http://www.w3.org/2000/svg"
   xmlns="http://www.w3.org/2000/svg"
   xmlns:sodipodi="http://sodipodi.sourceforge.net/DTD/sodipodi-0.dtd"
   xmlns:inkscape="http://www.inkscape.org/namespaces/inkscape"
   version="1.1"
   id="svg2"
   xml:space="preserve"
   width="177.80208"
   height="177.80208"
   viewBox="0 0 177.80208 177.80208"
   sodipodi:docname="icon.svg"
   inkscape:export-filename="/home/frerot/Documents/tamaas/examples/icon.png"
   inkscape:export-xdpi="150"
   inkscape:export-ydpi="150"
   inkscape:version="0.92.4 (5da689c313, 2019-01-14)"><title
     id="title836">Tamaas Icon</title><metadata
     id="metadata8"><rdf:RDF><cc:Work
         rdf:about=""><dc:format>image/svg+xml</dc:format><dc:type
           rdf:resource="http://purl.org/dc/dcmitype/StillImage" /><dc:title>Tamaas Icon</dc:title><cc:license
           rdf:resource="" /><dc:creator><cc:Agent><dc:title>Lucas Frérot</dc:title></cc:Agent></dc:creator><dc:rights><cc:Agent><dc:title>All rights reserved.</dc:title></cc:Agent></dc:rights></cc:Work></rdf:RDF></metadata><defs
     id="defs6"><clipPath
       clipPathUnits="userSpaceOnUse"
       id="clipPath878"><rect
         style="opacity:1;fill:none;fill-opacity:1;stroke:#000000;stroke-width:4.5;stroke-linecap:round;stroke-linejoin:round;stroke-miterlimit:10;stroke-dasharray:none;stroke-dashoffset:0;stroke-opacity:1"
         id="rect880"
         width="133.35155"
         height="133.35156"
         x="-9.0558351e-06"
         y="4.8090823e-07"
         rx="0"
         inkscape:export-xdpi="150"
         inkscape:export-ydpi="150" /></clipPath><clipPath
       clipPathUnits="userSpaceOnUse"
       id="clipPath882"><rect
         style="opacity:1;fill:none;fill-opacity:1;stroke:#000000;stroke-width:4.5;stroke-linecap:round;stroke-linejoin:round;stroke-miterlimit:10;stroke-dasharray:none;stroke-dashoffset:0;stroke-opacity:1"
         id="rect884"
         width="133.35155"
         height="133.35156"
         x="-9.0558351e-06"
         y="4.8090823e-07"
         rx="0"
         inkscape:export-xdpi="150"
         inkscape:export-ydpi="150" /></clipPath><clipPath
       clipPathUnits="userSpaceOnUse"
       id="clipPath886"><rect
         style="opacity:1;fill:none;fill-opacity:1;stroke:#000000;stroke-width:4.5;stroke-linecap:round;stroke-linejoin:round;stroke-miterlimit:10;stroke-dasharray:none;stroke-dashoffset:0;stroke-opacity:1"
         id="rect888"
         width="133.35155"
         height="133.35156"
         x="-9.0558351e-06"
         y="4.8090823e-07"
         rx="0"
         inkscape:export-xdpi="150"
         inkscape:export-ydpi="150" /></clipPath><clipPath
       clipPathUnits="userSpaceOnUse"
       id="clipPath890"><rect
         style="opacity:1;fill:none;fill-opacity:1;stroke:#000000;stroke-width:4.5;stroke-linecap:round;stroke-linejoin:round;stroke-miterlimit:10;stroke-dasharray:none;stroke-dashoffset:0;stroke-opacity:1"
         id="rect892"
         width="133.35155"
         height="133.35156"
         x="-9.0558351e-06"
         y="4.8090823e-07"
         rx="0"
         inkscape:export-xdpi="150"
         inkscape:export-ydpi="150" /></clipPath></defs><sodipodi:namedview
     pagecolor="#ffffff"
     bordercolor="#666666"
     borderopacity="1"
     objecttolerance="10"
     gridtolerance="10"
     guidetolerance="10"
     inkscape:pageopacity="0"
     inkscape:pageshadow="2"
     inkscape:window-width="1920"
     inkscape:window-height="1153"
     id="namedview4"
     showgrid="false"
     borderlayer="true"
     inkscape:zoom="3.2972918"
     inkscape:cx="-24.846197"
     inkscape:cy="82.149729"
     inkscape:window-x="1920"
     inkscape:window-y="24"
     inkscape:window-maximized="1"
     inkscape:current-layer="layer1"
     inkscape:snap-page="true"
     inkscape:pagecheckerboard="true"
     inkscape:snap-nodes="true"
     inkscape:snap-others="false"
     inkscape:snap-grids="true"
     inkscape:snap-to-guides="true" /><g
     inkscape:groupmode="layer"
     id="layer1"
     inkscape:label="background"
     style="display:inline"
     sodipodi:insensitive="true"><rect
       style="display:inline;fill:#ffffff;fill-opacity:1;stroke:none;stroke-width:1;stroke-linecap:round;stroke-linejoin:round;stroke-miterlimit:4;stroke-dasharray:none;stroke-dashoffset:0;stroke-opacity:1"
       id="rect838"
       width="177.06207"
       height="177.13541"
       x="0.74000001"
       y="0.66667193" /></g><g
     id="g10"
     inkscape:groupmode="layer"
     inkscape:label="scene"
     transform="matrix(1.3333333,0,0,1.3333333,0,5.2842448e-6)"
     style="display:inline"
     sodipodi:insensitive="true"><path
       d="M 0.555,71.875 V 0.5 H 285.48 v 71.984 l -1.117,0.563 -1.117,0.531 -1.117,0.5 -1.117,0.469 -1.117,0.441 -1.118,0.418 -1.117,0.395 -1.117,0.371 -1.117,0.355 -1.117,0.336 -1.118,0.317 -1.117,0.3 -1.117,0.286 -1.117,0.269 -1.121,0.254 -1.117,0.242 -1.118,0.227 -1.117,0.215 -1.117,0.203 -1.117,0.187 -1.117,0.18 -1.118,0.164 -1.117,0.156 -1.117,0.141 -1.117,0.133 -1.117,0.117 -1.118,0.109 -1.117,0.102 -1.117,0.086 -1.117,0.078 -1.117,0.066 -1.117,0.059 -1.118,0.047 -1.117,0.035 -1.117,0.027 -1.117,0.016 -1.117,0.004 -1.121,-0.004 -1.118,-0.016 -1.117,-0.023 -1.117,-0.039 -1.117,-0.043 -1.117,-0.059 -1.118,-0.066 -1.117,-0.078 -1.117,-0.09 -1.117,-0.102 -1.117,-0.113 -1.118,-0.125 -1.117,-0.137 -1.117,-0.152 -1.117,-0.164 -1.117,-0.176 -1.117,-0.191 -1.118,-0.203 -1.117,-0.223 -1.117,-0.238 -1.117,-0.254 -1.117,-0.27 -1.118,-0.289 -1.117,-0.312 -1.121,-0.328 -1.117,-0.356 -1.117,-0.379 -1.117,-0.406 -1.118,-0.438 -1.117,-0.468 -1.117,-0.508 -1.117,-0.551 -1.117,-0.602 -1.118,-0.66 -1.117,-0.742 -1.117,-0.851 -1.117,-1.055 -1.117,-1.207 -1.118,-1.164 -1.117,-1.117 -1.117,-1.067 -1.117,-1.012 -1.117,-0.957 -1.117,-0.898 -1.118,-0.84 -1.117,-0.773 -1.117,-0.711 -1.121,-0.641 -1.117,-0.57 -1.117,-0.5 -1.118,-0.43 -1.117,-0.351 -1.117,-0.282 -1.117,-0.199 -1.117,-0.129 -1.118,-0.047 -1.117,0.032 -1.117,0.105 -1.117,0.188 -1.117,0.265 -1.118,0.34 -1.117,0.422 -1.117,0.492 -1.117,0.57 -1.117,0.645 -1.117,0.719 -1.118,0.789 -1.117,0.859 -1.117,0.926 -1.117,0.992 -1.121,1.055 -1.117,1.117 -1.118,1.172 -1.117,1.23 -1.117,1.285 -1.117,1.071 -1.117,0.875 -1.118,0.769 -1.117,0.688 -1.117,0.629 -1.117,0.578 -1.117,0.535 -1.118,0.496 -1.117,0.465 -1.117,0.43 -1.117,0.406 -1.117,0.383 -1.118,0.359 -1.117,0.336 -1.117,0.316 -1.117,0.301 -1.117,0.281 -1.117,0.262 -1.122,0.25 -1.117,0.235 -1.117,0.218 -1.117,0.203 -1.117,0.192 -1.117,0.18 -1.118,0.167 -1.117,0.157 -1.117,0.14 -1.117,0.133 -1.117,0.121 -1.118,0.11 -1.117,0.101 -1.117,0.09 -1.117,0.078 -1.117,0.07 -1.118,0.059 -1.117,0.051 -1.117,0.043 -1.117,0.031 -1.117,0.023 -1.117,0.012 -1.118,0.004 -1.121,-0.004 -1.117,-0.015 -1.117,-0.024 -1.117,-0.035 -1.117,-0.043 -1.118,-0.051 -1.117,-0.058 -1.117,-0.071 -1.117,-0.082 -1.117,-0.09 -1.118,-0.097 -1.117,-0.11 L 100,81.531 98.883,81.402 97.766,81.266 96.648,81.117 95.531,80.957 94.414,80.789 93.297,80.605 92.18,80.414 91.062,80.211 89.945,79.996 88.828,79.77 87.707,79.531 86.59,79.277 85.473,79.016 84.355,78.734 83.238,78.441 82.121,78.133 81.004,77.812 79.887,77.469 78.77,77.113 77.652,76.734 76.535,76.34 75.418,75.922 74.301,75.48 73.184,75.016 72.066,74.523 70.949,74 69.832,73.449 68.715,72.855 67.598,72.223 66.48,71.543 65.363,70.809 64.246,70.004 63.129,69.125 62.012,68.141 60.891,67.016 59.773,65.645 58.656,64.039 57.539,62.477 56.422,60.965 55.305,59.512 54.188,58.109 53.07,56.77 l -1.117,-1.278 -1.117,-1.211 -1.117,-1.144 -1.117,-1.075 -1.118,-1 -1.117,-0.929 -1.117,-0.848 -1.117,-0.769 -1.117,-0.692 -1.118,-0.613 -1.117,-0.527 -1.117,-0.442 -1.117,-0.363 -1.117,-0.274 -1.118,-0.191 -1.121,-0.102 -1.117,-0.019 -1.117,0.066 -1.117,0.149 -1.117,0.234 -1.118,0.32 -1.117,0.399 -1.117,0.484 -1.117,0.559 -1.117,0.641 -1.117,0.718 -1.118,0.789 -1.117,0.864 -1.117,0.933 -1.117,1 -1.117,1.067 -1.118,1.132 -1.117,1.188 -1.117,1.246 -1.117,1.297 -1.117,1.351 -1.118,1.395 -1.117,1.441 -1.121,1.481 -1.117,1.515 -1.117,1.321 -1.117,1.078 -1.118,0.941 -1.117,0.848 -1.117,0.766 -1.117,0.707 z"
       style="fill:#cacaca;fill-opacity:1;fill-rule:nonzero;stroke:#cacaca;stroke-width:1;stroke-linecap:butt;stroke-linejoin:round;stroke-miterlimit:10;stroke-dasharray:none;stroke-opacity:1"
       id="path16"
       inkscape:connector-curvature="0"
       clip-path="url(#clipPath890)" /><path
       d="m 6.789,39.849238 -1.965,2.301 -0.859,1.821 -0.192,1.289 0.258,1.382 0.727,1.235 1.707,1.277 2.301,0.883 2.972,0.148 1.215,-0.136 1.445,-0.496 0.204,-0.211 1.546,-0.739 0.36,-0.367 1.09,-0.629 0.437,-0.422 0.895,-0.55 0.48,-0.442 2,-1.371 0.524,-0.426 5.207,-2.992 1.636,-0.683 2.739,-0.696 1.625,-0.18 1.617,-0.003 2.16,0.293 1.609,0.414 2.18,0.851 2.781,1.578 0.528,0.301 5.636,4.617 0.594,0.699 0.758,0.426 0.617,0.68 1.281,0.508 0.625,0.496 2.883,0.754 3.621,-0.547 2.383,-1.098 1.524,-1.297 0.585,-0.925 0.411,-0.911 v -1.968 l -0.391,-1.266 -1.129,-1.82 -1.59,-1.715 -1.965,-1.594 -3.14,-1.93 -2.645,-1.296 -4.531,-1.661 -3.777,-1.023 -3.168,-0.582 -4.399,-0.512 -3.301,-0.14 -3.312,0.07 -3.125,0.273 -3.277,0.438 -3.246,0.68 -3.536,0.976 -2.922,1.067 -2.722,1.234 -2.488,1.379 -2.336,1.621 -1.145,0.937"
       style="fill:#00abed;fill-opacity:1;stroke:#000000;stroke-width:1.92525005;stroke-linecap:butt;stroke-linejoin:round;stroke-miterlimit:10;stroke-dasharray:1.92525002, 3.17666253;stroke-dashoffset:0;stroke-opacity:1"
       id="path36"
       inkscape:connector-curvature="0"
       clip-path="url(#clipPath886)" /><path
       d="m 0.555,71.875 2.234,-1.359 2.234,-1.614 2.235,-2.019 1.117,-1.321 3.355,-4.437 3.352,-4.043 2.234,-2.434 2.235,-2.199 2.234,-1.933 2.235,-1.653 2.234,-1.359 2.234,-1.043 2.235,-0.719 2.234,-0.383 2.234,-0.047 2.239,0.293 2.234,0.637 2.234,0.969 2.235,1.305 2.234,1.617 2.235,1.929 2.234,2.219 2.234,2.489 2.235,2.742 3.351,4.527 1.117,1.606 1.118,1.371 2.238,2.109 2.234,1.684 2.235,1.414 3.351,1.777 3.352,1.48 3.351,1.254 4.469,1.399 4.469,1.144 4.472,0.934 5.586,0.906 5.586,0.641 5.586,0.398 5.586,0.168 5.59,-0.066 5.586,-0.301 5.586,-0.555 4.469,-0.644 4.468,-0.848 4.473,-1.094 3.352,-1.011 3.351,-1.219 3.352,-1.496 2.234,-1.207 2.235,-1.457 1.117,-0.875 1.117,-1.071 3.352,-3.687 2.238,-2.172 2.234,-1.918 2.235,-1.648 2.234,-1.364 2.234,-1.062 2.235,-0.762 2.234,-0.453 2.234,-0.137 2.235,0.176 2.234,0.481 2.235,0.781 2.234,1.07 2.238,1.352 2.235,1.613 2.234,1.855 2.234,2.079 4.469,4.543 2.234,1.593 2.235,1.262 3.351,1.527 3.352,1.223 3.355,0.996 4.469,1.051 4.469,0.793 4.469,0.578 4.468,0.383 5.586,0.23 5.59,-0.027 5.586,-0.285 5.586,-0.547 4.469,-0.641 4.469,-0.832 4.472,-1.051 4.469,-1.308 3.352,-1.184 3.351,-1.41 2.234,-1.094"
       style="fill:none;stroke:#7f7f7f;stroke-width:2.90024996;stroke-linecap:square;stroke-linejoin:round;stroke-miterlimit:10;stroke-dasharray:none;stroke-opacity:1"
       id="path44"
       inkscape:connector-curvature="0"
       clip-path="url(#clipPath882)" /><path
       id="path970"
       style="fill:#63be63;fill-opacity:1;stroke:#000000;stroke-width:2.4000001;stroke-linecap:butt;stroke-linejoin:miter;stroke-miterlimit:4;stroke-dasharray:none;stroke-opacity:1"
       d="M 285.48,78.539001 284.32424,144.26961 -30.479559,136.08107 0.555,76.871001 m 0,-1e-6 5.586,-8.183 4.472,-6.122 3.352,-4.187 3.351,-3.731 2.235,-2.199 2.234,-1.933 2.235,-1.653 2.234,-1.359 2.234,-1.043 2.235,-0.719 2.234,-0.383 2.234,-0.047 2.239,0.293 2.234,0.637 2.234,0.969 2.235,1.305 2.234,1.617 2.235,1.929 2.234,2.219 2.234,2.489 2.235,2.742 3.351,4.527 3.356,4.949 4.468,7.086 7.821,13.028 5.586,9.144 3.351,5.176 3.352,4.82 3.355,4.363 2.235,2.622 2.234,2.355 2.234,2.074 2.235,1.778 2.234,1.461 2.235,1.136 2.234,0.805 2.234,0.465 2.235,0.125 2.234,-0.215 2.238,-0.555 2.235,-0.883 2.234,-1.203 2.234,-1.504 2.235,-1.796 2.234,-2.071 2.235,-2.316 3.351,-3.895 3.352,-4.316 4.468,-6.246 6.707,-9.918 6.704,-9.817 3.351,-4.605 3.352,-4.27 3.351,-3.851 2.235,-2.289 2.238,-2.047 2.234,-1.785 2.235,-1.508 2.234,-1.215 2.234,-0.914 2.235,-0.605 2.234,-0.293 2.235,0.015 2.234,0.328 2.234,0.633 2.235,0.93 2.238,1.211 2.234,1.484 2.235,1.738 2.234,1.969 3.352,3.348 3.351,3.742 4.469,5.441 6.703,8.668 5.59,7.149 4.469,5.332 3.351,3.621 3.352,3.195 2.234,1.856 2.235,1.613 2.234,1.348 2.234,1.074 2.239,0.781 2.234,0.481 2.234,0.175 2.235,-0.14 2.234,-0.449 2.234,-0.762 2.235,-1.067 2.234,-1.359 2.235,-1.648 2.234,-1.918 2.234,-2.172 2.235,-2.406 3.355,-4 3.352,-4.391 4.469,-6.313 5.585,-8.277"
       inkscape:connector-curvature="0"
       clip-path="url(#clipPath878)" /></g><g
     inkscape:groupmode="layer"
     id="layer2"
     inkscape:label="frame"
     style="display:inline"
     sodipodi:insensitive="true"><rect
       transform="matrix(1.3333333,0,0,1.3333333,0,5.2842448e-6)"
       style="opacity:1;fill:none;fill-opacity:1;stroke:#000000;stroke-width:4.5;stroke-linecap:round;stroke-linejoin:round;stroke-miterlimit:10;stroke-dasharray:none;stroke-dashoffset:0;stroke-opacity:1"
       id="rect968"
       width="133.35155"
       height="133.35156"
       x="0"
       y="-3.9631836e-06"
       rx="0"
       inkscape:export-xdpi="150"
       inkscape:export-ydpi="150" /></g></svg>